<svg id="Layer_6" data-name="Layer 6" xmlns="http://www.w3.org/2000/svg" xmlns:xlink="http://www.w3.org/1999/xlink" viewBox="0 0 768.47 768"><defs><style>.cls-1{fill:url(#linear-gradient);}.cls-2{fill:url(#linear-gradient-2);}.cls-3{fill:url(#linear-gradient-3);}.cls-4{fill:url(#linear-gradient-4);}</style><linearGradient id="linear-gradient" x1="908.19" y1="645.65" x2="176.93" y2="645.65" gradientUnits="userSpaceOnUse"><stop offset="0" stop-color="#d86800"/><stop offset="0.26" stop-color="#d96c00"/><stop offset="0.51" stop-color="#dc7800"/><stop offset="0.76" stop-color="#e08b00"/><stop offset="1" stop-color="#e7a600"/></linearGradient><linearGradient id="linear-gradient-2" x1="499.19" y1="539.59" x2="366.25" y2="539.59" gradientTransform="translate(360.13 1228.34) rotate(-135)" gradientUnits="userSpaceOnUse"><stop offset="0" stop-color="#d86800"/><stop offset="1" stop-color="#e7a600"/></linearGradient><linearGradient id="linear-gradient-3" x1="395.47" y1="433.52" x2="259.71" y2="433.52" gradientTransform="translate(254.07 972.28) rotate(-135)" xlink:href="#linear-gradient-2"/><linearGradient id="linear-gradient-4" x1="696.21" y1="327.81" x2="372.92" y2="327.81" xlink:href="#linear-gradient"/></defs><title>logo_colorful</title><path class="cls-1" d="M744.53,370.23,582.6,532.16a10,10,0,0,0,0,14.14l56.57,56.57a10,10,0,0,0,14.14,0l91.22-91.22a10,10,0,0,1,14.14,0l21.22,21.22a10,10,0,0,1,0,14.14L653.31,673.58a10,10,0,0,1-14.14,0l-91.92-91.92a10,10,0,0,0-14.14,0l-91.93,91.92a10,10,0,0,1-14.14,0L229.4,476a10,10,0,0,0-14.14,0l-56.57,56.56a10,10,0,0,0,0,14.15L533.11,921.07a10,10,0,0,0,14.14,0L921.31,547a10,10,0,0,0,0-14.14L758.67,370.23A10,10,0,0,0,744.53,370.23ZM533.11,779.65l-21.22-21.22a10,10,0,0,1,0-14.14l21.22-21.21a10,10,0,0,1,14.14,0l21.21,21.21a10,10,0,0,1,0,14.15l-21.21,21.21A10,10,0,0,1,533.11,779.65Z" transform="translate(-155.76 -156)"/><rect class="cls-2" x="384.46" y="489.59" width="100" height="100" rx="10" transform="translate(967.46 457.92) rotate(135)"/><rect class="cls-3" x="278.4" y="383.52" width="100" height="100" rx="10" transform="translate(711.39 351.85) rotate(135)"/><path class="cls-4" d="M371.18,336.29,531,496.1a12,12,0,0,0,17,0L707.76,336.29a12,12,0,0,0,0-17L548,159.52a12,12,0,0,0-17,0l-159.8,159.8A12,12,0,0,0,371.18,336.29Zm195.16,0L548,354.68a12,12,0,0,1-17,0L512.6,336.29a12,12,0,0,1,0-17L531,300.94a12,12,0,0,1,17,0l18.39,18.38A12,12,0,0,1,566.34,336.29Z" transform="translate(-155.76 -156)"/></svg>