<svg id="Layer_6" data-name="Layer 6" xmlns="http://www.w3.org/2000/svg" viewBox="0 0 768.47 768"><defs><style>.cls-1{fill:#f2f2f2;}</style></defs><title>logo_white</title><path class="cls-1" d="M744.53,370.23,582.6,532.16a10,10,0,0,0,0,14.14l56.57,56.57a10,10,0,0,0,14.14,0l91.22-91.22a10,10,0,0,1,14.14,0l21.22,21.22a10,10,0,0,1,0,14.14L653.31,673.58a10,10,0,0,1-14.14,0l-91.92-91.92a10,10,0,0,0-14.14,0l-91.93,91.92a10,10,0,0,1-14.14,0L229.4,476a10,10,0,0,0-14.14,0l-56.57,56.56a10,10,0,0,0,0,14.15L533.11,921.07a10,10,0,0,0,14.14,0L921.31,547a10,10,0,0,0,0-14.14L758.67,370.23A10,10,0,0,0,744.53,370.23ZM533.11,779.65l-21.22-21.22a10,10,0,0,1,0-14.14l21.22-21.21a10,10,0,0,1,14.14,0l21.21,21.21a10,10,0,0,1,0,14.15l-21.21,21.21A10,10,0,0,1,533.11,779.65Z" transform="translate(-155.76 -156)"/><rect class="cls-1" x="384.46" y="489.59" width="100" height="100" rx="10" transform="translate(967.46 457.92) rotate(135)"/><rect class="cls-1" x="278.4" y="383.52" width="100" height="100" rx="10" transform="translate(711.39 351.85) rotate(135)"/><path class="cls-1" d="M371.18,336.29,531,496.1a12,12,0,0,0,17,0L707.76,336.29a12,12,0,0,0,0-17L548,159.52a12,12,0,0,0-17,0l-159.8,159.8A12,12,0,0,0,371.18,336.29Zm195.16,0L548,354.68a12,12,0,0,1-17,0L512.6,336.29a12,12,0,0,1,0-17L531,300.94a12,12,0,0,1,17,0l18.39,18.38A12,12,0,0,1,566.34,336.29Z" transform="translate(-155.76 -156)"/></svg>